<mxfile host="app.diagrams.net" modified="2023-02-11T16:13:25.993Z" agent="5.0 (Macintosh; Intel Mac OS X 10_15_7) AppleWebKit/537.36 (KHTML, like Gecko) Chrome/107.0.0.0 Safari/537.36" etag="OHEz_bSq0uUZLE9WxJTn" version="20.8.19" type="github">
  <diagram name="第 1 页" id="sswnDbpZvK9JjSv5yuOD">
    <mxGraphModel dx="1026" dy="683" grid="1" gridSize="10" guides="1" tooltips="1" connect="1" arrows="1" fold="1" page="1" pageScale="1" pageWidth="827" pageHeight="1169" math="0" shadow="0">
      <root>
        <mxCell id="0" />
        <mxCell id="1" parent="0" />
        <mxCell id="ginQDB4O2SzOWhfrKM4r-3" value="" style="edgeStyle=orthogonalEdgeStyle;rounded=0;orthogonalLoop=1;jettySize=auto;html=1;fontSize=18;" edge="1" parent="1" source="ginQDB4O2SzOWhfrKM4r-1" target="ginQDB4O2SzOWhfrKM4r-2">
          <mxGeometry relative="1" as="geometry" />
        </mxCell>
        <mxCell id="ginQDB4O2SzOWhfrKM4r-1" value="&lt;font style=&quot;font-size: 18px;&quot;&gt;MRMS&lt;br&gt;抽奖&lt;/font&gt;" style="rounded=1;whiteSpace=wrap;html=1;" vertex="1" parent="1">
          <mxGeometry x="70" y="240" width="120" height="60" as="geometry" />
        </mxCell>
        <mxCell id="ginQDB4O2SzOWhfrKM4r-5" value="" style="edgeStyle=orthogonalEdgeStyle;rounded=0;orthogonalLoop=1;jettySize=auto;html=1;fontSize=18;" edge="1" parent="1" source="ginQDB4O2SzOWhfrKM4r-2" target="ginQDB4O2SzOWhfrKM4r-4">
          <mxGeometry relative="1" as="geometry" />
        </mxCell>
        <mxCell id="ginQDB4O2SzOWhfrKM4r-10" value="否" style="edgeLabel;html=1;align=center;verticalAlign=middle;resizable=0;points=[];fontSize=18;" vertex="1" connectable="0" parent="ginQDB4O2SzOWhfrKM4r-5">
          <mxGeometry x="-0.0556" relative="1" as="geometry">
            <mxPoint y="1" as="offset" />
          </mxGeometry>
        </mxCell>
        <mxCell id="ginQDB4O2SzOWhfrKM4r-9" value="" style="edgeStyle=orthogonalEdgeStyle;rounded=0;orthogonalLoop=1;jettySize=auto;html=1;fontSize=18;" edge="1" parent="1" source="ginQDB4O2SzOWhfrKM4r-2" target="ginQDB4O2SzOWhfrKM4r-6">
          <mxGeometry relative="1" as="geometry" />
        </mxCell>
        <mxCell id="ginQDB4O2SzOWhfrKM4r-11" value="是" style="edgeLabel;html=1;align=center;verticalAlign=middle;resizable=0;points=[];fontSize=18;" vertex="1" connectable="0" parent="ginQDB4O2SzOWhfrKM4r-9">
          <mxGeometry x="-0.2" y="3" relative="1" as="geometry">
            <mxPoint y="1" as="offset" />
          </mxGeometry>
        </mxCell>
        <mxCell id="ginQDB4O2SzOWhfrKM4r-2" value="&lt;font style=&quot;font-size: 18px;&quot;&gt;是否车辆&lt;/font&gt;" style="rhombus;whiteSpace=wrap;html=1;rounded=1;" vertex="1" parent="1">
          <mxGeometry x="250" y="230" width="160" height="80" as="geometry" />
        </mxCell>
        <mxCell id="ginQDB4O2SzOWhfrKM4r-4" value="&lt;font style=&quot;font-size: 18px;&quot;&gt;发其他道具&lt;/font&gt;" style="whiteSpace=wrap;html=1;rounded=1;" vertex="1" parent="1">
          <mxGeometry x="270" y="370" width="120" height="60" as="geometry" />
        </mxCell>
        <mxCell id="ginQDB4O2SzOWhfrKM4r-22" value="" style="edgeStyle=orthogonalEdgeStyle;rounded=0;orthogonalLoop=1;jettySize=auto;html=1;fontSize=18;" edge="1" parent="1" source="ginQDB4O2SzOWhfrKM4r-6" target="ginQDB4O2SzOWhfrKM4r-21">
          <mxGeometry relative="1" as="geometry" />
        </mxCell>
        <mxCell id="ginQDB4O2SzOWhfrKM4r-6" value="&lt;font style=&quot;font-size: 18px;&quot;&gt;发车辆积分&lt;/font&gt;" style="whiteSpace=wrap;html=1;rounded=1;" vertex="1" parent="1">
          <mxGeometry x="460" y="240" width="120" height="60" as="geometry" />
        </mxCell>
        <mxCell id="ginQDB4O2SzOWhfrKM4r-7" value="" style="shape=cylinder3;whiteSpace=wrap;html=1;boundedLbl=1;backgroundOutline=1;size=15;fontSize=18;fillColor=#f5f5f5;strokeColor=#666666;fontColor=#333333;" vertex="1" parent="1">
          <mxGeometry x="490" y="90" width="60" height="80" as="geometry" />
        </mxCell>
        <mxCell id="ginQDB4O2SzOWhfrKM4r-8" value="暂存箱" style="text;html=1;align=center;verticalAlign=middle;resizable=0;points=[];autosize=1;strokeColor=none;fillColor=none;fontSize=18;" vertex="1" parent="1">
          <mxGeometry x="480" y="180" width="80" height="40" as="geometry" />
        </mxCell>
        <mxCell id="ginQDB4O2SzOWhfrKM4r-20" value="" style="edgeStyle=orthogonalEdgeStyle;rounded=0;orthogonalLoop=1;jettySize=auto;html=1;fontSize=18;" edge="1" parent="1" target="ginQDB4O2SzOWhfrKM4r-19">
          <mxGeometry relative="1" as="geometry">
            <mxPoint x="780" y="270" as="sourcePoint" />
          </mxGeometry>
        </mxCell>
        <mxCell id="ginQDB4O2SzOWhfrKM4r-27" value="是" style="edgeLabel;html=1;align=center;verticalAlign=middle;resizable=0;points=[];fontSize=18;" vertex="1" connectable="0" parent="ginQDB4O2SzOWhfrKM4r-20">
          <mxGeometry x="0.16" relative="1" as="geometry">
            <mxPoint as="offset" />
          </mxGeometry>
        </mxCell>
        <mxCell id="ginQDB4O2SzOWhfrKM4r-15" value="" style="edgeStyle=orthogonalEdgeStyle;rounded=0;orthogonalLoop=1;jettySize=auto;html=1;fontSize=18;" edge="1" parent="1" source="ginQDB4O2SzOWhfrKM4r-13" target="ginQDB4O2SzOWhfrKM4r-14">
          <mxGeometry relative="1" as="geometry" />
        </mxCell>
        <mxCell id="ginQDB4O2SzOWhfrKM4r-13" value="物品持有&lt;br&gt;数量缓存" style="rounded=0;whiteSpace=wrap;html=1;fontSize=18;" vertex="1" parent="1">
          <mxGeometry x="660" y="110" width="120" height="60" as="geometry" />
        </mxCell>
        <mxCell id="ginQDB4O2SzOWhfrKM4r-14" value="IDIP服务器" style="rounded=0;whiteSpace=wrap;html=1;fontSize=18;" vertex="1" parent="1">
          <mxGeometry x="830" y="110" width="120" height="60" as="geometry" />
        </mxCell>
        <mxCell id="ginQDB4O2SzOWhfrKM4r-33" value="" style="edgeStyle=orthogonalEdgeStyle;rounded=0;orthogonalLoop=1;jettySize=auto;html=1;fontSize=18;" edge="1" parent="1" source="ginQDB4O2SzOWhfrKM4r-19" target="ginQDB4O2SzOWhfrKM4r-31">
          <mxGeometry relative="1" as="geometry" />
        </mxCell>
        <mxCell id="ginQDB4O2SzOWhfrKM4r-19" value="分解碎片" style="whiteSpace=wrap;html=1;rounded=1;fontSize=18;" vertex="1" parent="1">
          <mxGeometry x="880" y="240" width="120" height="60" as="geometry" />
        </mxCell>
        <mxCell id="ginQDB4O2SzOWhfrKM4r-23" value="" style="edgeStyle=orthogonalEdgeStyle;rounded=0;orthogonalLoop=1;jettySize=auto;html=1;fontSize=18;" edge="1" parent="1" source="ginQDB4O2SzOWhfrKM4r-21" target="ginQDB4O2SzOWhfrKM4r-13">
          <mxGeometry relative="1" as="geometry" />
        </mxCell>
        <mxCell id="ginQDB4O2SzOWhfrKM4r-28" style="edgeStyle=orthogonalEdgeStyle;rounded=0;orthogonalLoop=1;jettySize=auto;html=1;entryX=0;entryY=0.5;entryDx=0;entryDy=0;fontSize=18;" edge="1" parent="1" source="ginQDB4O2SzOWhfrKM4r-21" target="ginQDB4O2SzOWhfrKM4r-26">
          <mxGeometry relative="1" as="geometry">
            <Array as="points">
              <mxPoint x="720" y="350" />
            </Array>
          </mxGeometry>
        </mxCell>
        <mxCell id="ginQDB4O2SzOWhfrKM4r-29" value="否" style="edgeLabel;html=1;align=center;verticalAlign=middle;resizable=0;points=[];fontSize=18;" vertex="1" connectable="0" parent="ginQDB4O2SzOWhfrKM4r-28">
          <mxGeometry x="0.02" y="2" relative="1" as="geometry">
            <mxPoint as="offset" />
          </mxGeometry>
        </mxCell>
        <mxCell id="ginQDB4O2SzOWhfrKM4r-21" value="&lt;span style=&quot;font-size: 18px;&quot;&gt;各车辆总数量&lt;br&gt;是否达到阈值&lt;/span&gt;" style="rhombus;whiteSpace=wrap;html=1;rounded=1;fillColor=#f5f5f5;fontColor=#333333;strokeColor=#666666;" vertex="1" parent="1">
          <mxGeometry x="640" y="230" width="160" height="80" as="geometry" />
        </mxCell>
        <mxCell id="ginQDB4O2SzOWhfrKM4r-32" value="" style="edgeStyle=orthogonalEdgeStyle;rounded=0;orthogonalLoop=1;jettySize=auto;html=1;fontSize=18;" edge="1" parent="1" source="ginQDB4O2SzOWhfrKM4r-26" target="ginQDB4O2SzOWhfrKM4r-31">
          <mxGeometry relative="1" as="geometry">
            <Array as="points">
              <mxPoint x="1050" y="350" />
              <mxPoint x="1050" y="270" />
            </Array>
          </mxGeometry>
        </mxCell>
        <mxCell id="ginQDB4O2SzOWhfrKM4r-26" value="对应车辆" style="whiteSpace=wrap;html=1;rounded=1;fontSize=18;" vertex="1" parent="1">
          <mxGeometry x="880" y="320" width="120" height="60" as="geometry" />
        </mxCell>
        <mxCell id="ginQDB4O2SzOWhfrKM4r-35" value="" style="edgeStyle=orthogonalEdgeStyle;rounded=0;orthogonalLoop=1;jettySize=auto;html=1;fontSize=18;" edge="1" parent="1" source="ginQDB4O2SzOWhfrKM4r-31" target="ginQDB4O2SzOWhfrKM4r-34">
          <mxGeometry relative="1" as="geometry" />
        </mxCell>
        <mxCell id="ginQDB4O2SzOWhfrKM4r-36" value="弱网异常" style="edgeLabel;html=1;align=center;verticalAlign=middle;resizable=0;points=[];fontSize=18;" vertex="1" connectable="0" parent="ginQDB4O2SzOWhfrKM4r-35">
          <mxGeometry x="-0.15" relative="1" as="geometry">
            <mxPoint as="offset" />
          </mxGeometry>
        </mxCell>
        <mxCell id="ginQDB4O2SzOWhfrKM4r-39" value="" style="edgeStyle=orthogonalEdgeStyle;rounded=0;orthogonalLoop=1;jettySize=auto;html=1;fontSize=18;" edge="1" parent="1" source="ginQDB4O2SzOWhfrKM4r-31" target="ginQDB4O2SzOWhfrKM4r-38">
          <mxGeometry relative="1" as="geometry" />
        </mxCell>
        <mxCell id="ginQDB4O2SzOWhfrKM4r-31" value="汇总批量发货" style="whiteSpace=wrap;html=1;rounded=1;fontSize=18;" vertex="1" parent="1">
          <mxGeometry x="1100" y="240" width="120" height="60" as="geometry" />
        </mxCell>
        <mxCell id="ginQDB4O2SzOWhfrKM4r-34" value="自动补发" style="whiteSpace=wrap;html=1;rounded=1;fontSize=18;" vertex="1" parent="1">
          <mxGeometry x="1330" y="240" width="120" height="60" as="geometry" />
        </mxCell>
        <mxCell id="ginQDB4O2SzOWhfrKM4r-38" value="&lt;font style=&quot;font-size: 14px;&quot;&gt;标记缓存中流水号：已发&lt;/font&gt;" style="whiteSpace=wrap;html=1;rounded=1;fontSize=18;" vertex="1" parent="1">
          <mxGeometry x="1095" y="400" width="130" height="60" as="geometry" />
        </mxCell>
        <mxCell id="ginQDB4O2SzOWhfrKM4r-43" value="" style="edgeStyle=orthogonalEdgeStyle;rounded=0;orthogonalLoop=1;jettySize=auto;html=1;strokeColor=default;fontSize=14;" edge="1" parent="1" source="ginQDB4O2SzOWhfrKM4r-40" target="ginQDB4O2SzOWhfrKM4r-42">
          <mxGeometry relative="1" as="geometry" />
        </mxCell>
        <mxCell id="ginQDB4O2SzOWhfrKM4r-40" value="&lt;font style=&quot;font-size: 14px;&quot;&gt;标记缓存中流水号：未发+时间戳&lt;/font&gt;" style="whiteSpace=wrap;html=1;rounded=1;fontSize=18;" vertex="1" parent="1">
          <mxGeometry x="540" y="400" width="120" height="60" as="geometry" />
        </mxCell>
        <mxCell id="ginQDB4O2SzOWhfrKM4r-41" value="" style="endArrow=classic;html=1;rounded=0;fontSize=14;entryX=0.5;entryY=0;entryDx=0;entryDy=0;strokeColor=default;" edge="1" parent="1" target="ginQDB4O2SzOWhfrKM4r-40">
          <mxGeometry width="50" height="50" relative="1" as="geometry">
            <mxPoint x="600" y="270" as="sourcePoint" />
            <mxPoint x="610" y="370" as="targetPoint" />
          </mxGeometry>
        </mxCell>
        <mxCell id="ginQDB4O2SzOWhfrKM4r-42" value="&lt;font style=&quot;font-size: 14px;&quot;&gt;后台脚本定时检查超时补发&lt;/font&gt;" style="whiteSpace=wrap;html=1;rounded=1;fontSize=18;" vertex="1" parent="1">
          <mxGeometry x="810" y="400" width="120" height="60" as="geometry" />
        </mxCell>
      </root>
    </mxGraphModel>
  </diagram>
</mxfile>
